<svg width="958" height="636" viewBox="0 0 958 636" fill="none" xmlns="http://www.w3.org/2000/svg">
<g clip-path="url(#clip0_2815_2041)">
<path opacity="0.047" d="M531.654 189.17L532.148 189.01L532.538 188.666C534.676 186.781 536.913 184.943 539.253 183.152C539.764 183.093 540.275 183.033 540.785 182.973L540.795 182.972L540.843 182.966C541.404 182.901 541.966 182.835 542.527 182.77C535.105 188.49 527.161 193.495 518.693 197.785L518.166 198.052L517.814 198.526C516.907 199.75 516.076 201.013 515.323 202.314C511.967 204.194 508.639 206.112 505.34 208.069C505.87 207.169 506.445 206.288 507.066 205.425C509.704 203.969 512.325 202.627 514.933 201.396L515.465 201.145L515.829 200.684C518.257 197.607 520.852 194.811 523.615 192.294C524.594 192.24 525.564 191.976 526.441 191.4C527.089 190.976 527.601 190.439 528.001 189.835C529.236 189.779 530.456 189.557 531.654 189.17ZM554.228 177.997C552.539 178.309 550.832 178.568 549.104 178.773C552.914 176.044 556.709 173.257 560.489 170.412C562.075 169.925 563.688 169.658 565.333 169.609C561.435 172.231 557.734 175.027 554.228 177.997ZM572.929 166.962C571.983 167.091 571.037 167.242 570.091 167.417C571.11 166.611 572.112 165.796 573.095 164.972L572.929 166.962ZM575.535 164.681L573.548 164.59C574.072 164.146 574.591 163.699 575.105 163.25C576.839 162.641 578.593 162.389 580.382 162.484C579.968 162.616 579.564 162.803 579.178 163.055C578.524 163.484 578.032 164.032 577.673 164.643C576.974 164.702 576.262 164.715 575.535 164.681ZM497.346 213.214C496.57 214.441 496.207 215.764 496.251 217.119C494.484 218.079 492.683 218.924 490.846 219.656L489.065 220.366L489.206 221.569C488.747 221.674 488.296 221.853 487.873 222.13C487.834 222.155 487.796 222.181 487.759 222.208C487.971 221.709 488.183 221.211 488.396 220.713L488.404 220.695C488.572 220.3 488.74 219.906 488.908 219.511C491.639 216.936 494.499 214.764 497.49 212.988L497.346 213.214ZM481.422 227.236C480.548 228.621 479.751 230.044 479.033 231.504C478.751 231.532 478.47 231.58 478.189 231.648L478.165 231.654L478.616 230.879C478.989 230.239 479.362 229.598 479.735 228.958L479.741 228.947C479.996 228.509 480.252 228.07 480.507 227.631C480.853 227.444 481.196 227.253 481.534 227.058L481.422 227.236ZM477.053 232.049L477.291 231.991L476.915 232.41C475.732 233.73 474.529 234.994 473.305 236.202L473.319 236.128C473.55 234.863 473.993 234.006 474.542 233.411C475.088 232.82 475.877 232.339 477.053 232.049ZM460.894 248.431C463.51 243.656 466.903 240.34 471.059 238.336C469.692 239.584 468.303 240.764 466.889 241.878L468.914 246.295C469.637 246.154 470.351 246.127 471.061 246.209L472.098 246.33C471.21 246.877 470.321 247.425 469.433 247.972L468.992 248.243L468.695 248.668L467.152 250.874L465.99 252.535C458.548 256.068 451.644 260.529 445.283 265.912C445.269 265.865 445.256 265.808 445.246 265.743C446.984 263.537 448.442 261.162 449.616 258.619C451.549 257.502 453.361 256.294 455.05 254.994L455.714 254.482L455.936 253.673C456.552 251.42 457.737 250.197 459.504 249.598L460.426 249.285L460.894 248.431ZM498.003 230.297C489.487 235.589 480.945 240.876 472.377 246.157L473.01 245.595C479.427 239.892 486.47 235.279 494.143 231.749L495.887 230.947L495.667 229.667C495.707 229.677 495.749 229.688 495.792 229.7L498.003 230.297ZM494.721 229.532C494.721 229.532 494.723 229.531 494.728 229.531C494.723 229.532 494.721 229.532 494.721 229.532ZM501.475 228.139C500.768 228.578 500.061 229.018 499.353 229.458L499.013 227.475C499.053 227.485 499.095 227.496 499.138 227.508L501.475 228.139ZM498.067 227.34C498.067 227.34 498.069 227.339 498.074 227.339C498.069 227.34 498.067 227.34 498.067 227.34ZM502.393 227.567C502.177 227.702 501.96 227.836 501.744 227.971L502.237 225.604L502.239 225.596L502.241 225.588L502.242 225.58L502.244 225.572L502.246 225.564L502.248 225.555L502.249 225.547L502.251 225.539L502.253 225.531L502.254 225.523L502.256 225.515L502.258 225.507L502.259 225.499L502.261 225.491L502.263 225.482L502.264 225.474L502.266 225.466L502.268 225.458L502.27 225.45L502.271 225.442L502.273 225.434L502.275 225.426L502.276 225.418L502.278 225.409L502.28 225.401L502.281 225.393L502.283 225.385L502.285 225.377L502.286 225.369L502.288 225.361L502.29 225.353L502.291 225.344L502.293 225.336L502.295 225.328L502.297 225.32L502.298 225.312L502.3 225.304L502.302 225.296L502.303 225.288L502.305 225.28L502.307 225.271L502.308 225.263L502.31 225.255L502.312 225.247L502.313 225.239L502.315 225.231L502.317 225.223L502.319 225.215L502.32 225.207L502.322 225.198L502.324 225.19L502.325 225.182L502.327 225.174L502.329 225.166L502.33 225.158L502.332 225.15L502.334 225.142L502.335 225.134L502.337 225.125L502.339 225.117L502.341 225.109L502.342 225.101L502.344 225.093L502.346 225.085L502.347 225.077L502.349 225.069L502.351 225.061L502.352 225.052L502.354 225.044L502.356 225.036L502.357 225.028L502.359 225.02L502.361 225.012L502.362 225.004L502.364 224.996L502.366 224.988L502.368 224.979L502.369 224.971L502.371 224.963L502.373 224.955L502.374 224.947L502.376 224.939L502.378 224.931L502.379 224.923L502.381 224.915L502.383 224.906L502.384 224.898L502.386 224.89L502.388 224.882L502.39 224.874L502.391 224.866L502.393 224.858L502.395 224.85L502.396 224.842L502.398 224.833L502.4 224.825L502.401 224.817L502.403 224.809L502.405 224.801L502.406 224.793L502.408 224.785L502.41 224.777L502.412 224.769L502.413 224.76L502.415 224.752L502.417 224.744L502.418 224.736L502.42 224.728L502.422 224.72L502.423 224.712L502.425 224.704L502.427 224.696L502.428 224.687L502.43 224.679L502.432 224.671L502.433 224.663L502.435 224.655L502.437 224.647L502.439 224.639L502.44 224.631L502.442 224.623L502.444 224.614L502.445 224.606L502.447 224.598L502.449 224.59L502.45 224.582L502.452 224.574L502.454 224.566L502.455 224.558L502.457 224.549L502.459 224.541L502.461 224.533L502.462 224.525L502.464 224.517L502.466 224.509L502.467 224.501L502.469 224.493L502.471 224.485L502.472 224.476L502.474 224.468L502.476 224.46L502.477 224.452L502.479 224.444L502.481 224.436L502.482 224.428L502.484 224.42L502.486 224.412L502.488 224.403L502.489 224.395L502.491 224.387L502.493 224.379L502.494 224.371L502.496 224.363L502.498 224.355L502.499 224.347L502.501 224.339L502.503 224.33L502.504 224.322L502.506 224.314L502.508 224.306L502.51 224.298L502.511 224.29L502.513 224.282L502.515 224.274L502.516 224.266L502.518 224.257L502.52 224.249L502.521 224.241L502.523 224.233L502.525 224.225L502.526 224.217L502.528 224.209L502.53 224.201L502.532 224.193L502.533 224.184L502.535 224.176L502.537 224.168L502.538 224.16L502.54 224.152L502.542 224.144L502.543 224.136L502.545 224.128L502.547 224.12L502.548 224.111L502.55 224.103L502.552 224.095L502.553 224.087L502.555 224.079L502.557 224.071L502.559 224.063L502.56 224.055L502.562 224.047L502.564 224.038L502.565 224.03L502.567 224.022L502.569 224.014L502.57 224.006L502.572 223.998L502.574 223.99L502.575 223.982L502.577 223.974L502.579 223.965L502.581 223.957L502.582 223.949L502.584 223.941L502.586 223.933L502.587 223.925L502.589 223.917L502.591 223.909L502.592 223.901L502.594 223.892L502.596 223.884L502.597 223.876L502.599 223.868L502.601 223.86L502.603 223.852L502.604 223.844L502.606 223.836L502.608 223.828L502.609 223.819L502.611 223.811L502.613 223.803L502.614 223.795L502.616 223.787L502.618 223.779L502.619 223.771L502.621 223.763L502.623 223.755L502.624 223.746L502.626 223.738L502.628 223.73L502.63 223.722L502.631 223.714L502.633 223.706L502.635 223.698L502.636 223.69L502.638 223.681L502.64 223.673L502.641 223.665L502.643 223.657L502.645 223.649L502.646 223.641L502.648 223.633L502.65 223.625L502.652 223.617L502.653 223.608L502.655 223.6L502.657 223.592L502.658 223.584L502.66 223.576L502.662 223.568L502.663 223.56L502.665 223.552L502.667 223.544L502.668 223.535L502.67 223.527L502.672 223.519L502.674 223.511L502.675 223.503L502.677 223.495L502.679 223.487L502.68 223.479L502.682 223.471L502.684 223.462L502.685 223.457C503.203 223.461 503.722 223.465 504.24 223.47L505.246 223.478L505.977 222.788C507.583 221.272 509.277 220.172 511.056 219.45L511.298 219.352L511.161 219.479C509.671 220.854 508.181 222.228 506.69 223.603L506.679 223.613C505.25 224.931 503.822 226.249 502.393 227.567ZM532.807 206.444C526.171 210.452 519.497 214.453 512.788 218.448L512.682 217.544C513.141 217.438 513.592 217.259 514.014 216.983C514.661 216.559 515.085 216.028 515.355 215.457C516.044 215.396 516.732 215.202 517.36 214.791C518.509 214.038 518.958 212.944 519.078 211.896C533.074 203.149 547.078 194.361 561.09 185.532L562.424 184.692L562.322 183.827C562.782 183.722 563.232 183.543 563.655 183.266C564.301 182.843 564.726 182.311 564.996 181.741C565.684 181.68 566.373 181.485 567.001 181.074C568.18 180.302 568.622 179.17 568.728 178.097C571.628 176.149 574.61 174.587 577.675 173.405L579.136 172.841L579.26 171.36C579.507 171.36 579.755 171.366 580.005 171.378L580.953 171.422C579.534 172.731 578.114 174.041 576.695 175.35L576.661 175.381C575.248 176.684 573.835 177.988 572.423 179.291C562.056 185.364 551.881 191.636 541.898 198.106L541.719 198.222L541.563 198.366C540.073 199.741 538.582 201.116 537.092 202.49C535.664 203.808 534.235 205.126 532.807 206.444ZM582.511 170.308L582.606 169.168C582.853 169.168 583.101 169.174 583.351 169.186L584.185 169.225C583.626 169.585 583.068 169.946 582.511 170.308ZM587.597 167.036C587.015 167.406 586.434 167.778 585.854 168.151L585.952 166.976C586.198 166.976 586.447 166.982 586.697 166.994L587.597 167.036ZM587.892 161.198C587.004 160.707 585.904 160.274 584.735 160.292C586.108 159.23 587.414 158.118 588.653 156.956C590.283 157.198 591.882 157.092 593.395 156.541C595.075 155.93 596.468 154.838 597.599 153.403C599.394 152.892 601.222 152.66 603.093 152.705L604.388 152.736L605.16 151.696C606.886 149.373 609.132 148.315 612.209 148.477L612.697 148.502L613.16 148.342C614.451 147.894 615.681 147.329 616.848 146.65C616.875 146.745 616.9 146.84 616.921 146.938C615.222 148.68 613.561 150.435 611.937 152.202C604.354 156.617 596.87 161.162 589.484 165.837L589.296 164.21C589.275 164.022 589.253 163.835 589.231 163.651L589.231 163.65C589.209 163.464 589.187 163.282 589.166 163.099L589.019 161.821L587.892 161.198ZM486.185 224.806C485.242 225.231 484.266 225.632 483.257 226.009C484.392 225.28 485.481 224.503 486.523 223.676C486.353 224.043 486.246 224.426 486.185 224.806Z" fill="#8E1212" stroke="white" stroke-width="5"/>
<g opacity="0.043">
<mask id="path-2-inside-1_2815_2041" fill="white">
<path fill-rule="evenodd" clip-rule="evenodd" d="M715.151 191.599C721.372 188.887 726.809 185.325 731.462 180.913C733.222 180.558 734.981 180.202 736.741 179.846C740.058 177.174 743.359 174.611 746.649 172.16C747.989 171.928 749.33 171.846 750.672 171.915C755.873 168.324 761.085 164.113 766.306 159.282C772.334 156.926 777.632 153.455 782.199 148.87C783.959 148.514 785.718 148.158 787.477 147.803C789.777 146.049 791.965 144.217 794.04 142.308C795.52 142.136 797.001 141.962 798.481 141.789C804.068 137.894 809.601 133.871 815.081 129.719C816.526 129.695 817.91 129.984 819.235 130.584C819.331 130.123 819.427 129.661 819.523 129.2C822.014 129.959 824.503 130.719 826.994 131.479C827.09 131.018 827.186 130.555 827.282 130.094C837.72 133.357 848.28 136.4 858.966 139.224C863.331 140.567 864.234 143.163 861.677 147.012C855.239 151.237 848.826 155.439 842.438 159.616C841.677 162.22 840.047 163.687 837.549 164.014C833.602 168.224 829.409 172.166 824.973 175.84C819.093 179.034 813.335 182.409 807.696 185.963C806.355 187.917 805.091 189.94 803.902 192.035C797.868 196.559 791.734 200.577 785.5 204.091C783.44 206.184 781.435 208.295 779.486 210.422C772.154 214.338 765.14 218.535 758.444 223.011C757.455 224.346 756.565 225.725 755.776 227.15C754.305 226.758 753.929 227.402 754.651 229.083C749.748 231.913 744.826 234.739 739.883 237.562C738.369 239.259 736.923 241.004 735.542 242.797C731.488 244.952 727.541 247.139 723.701 249.359C720.721 252.109 717.74 254.858 714.76 257.608C706.567 262.287 698.577 267.124 690.79 272.115C689.761 273.586 688.733 275.057 687.704 276.528C677.687 282.981 667.467 289.279 657.043 295.42C655.177 297.439 653.312 299.457 651.447 301.476C648.601 302.835 645.769 304.291 642.952 305.846C641.963 307.18 641.073 308.56 640.284 309.985C627.01 319.69 613.208 328.732 598.878 337.111C595.992 339.761 593.15 342.419 590.355 345.086C588.412 345.163 586.471 345.239 584.528 345.316C584.9 347.48 583.784 348.211 581.182 347.508C581.269 348.249 581.355 348.989 581.442 349.729C570.132 356.523 559.075 363.369 548.271 370.265C548.358 371.005 548.444 371.745 548.531 372.486C534.164 381.348 519.761 390.385 505.322 399.597C500.061 404.061 494.85 408.272 489.689 412.23C488.067 412.384 486.447 412.649 484.829 413.023C480.595 415.582 476.595 418.6 472.83 422.08C471.086 423.238 469.188 423.686 467.133 423.421C464.752 426.537 461.686 428.546 457.932 429.449C458.019 430.189 458.104 430.929 458.191 431.67C447.795 437.198 438.316 443.408 429.751 450.302C428.129 450.456 426.509 450.721 424.891 451.095C422.339 452.862 420.012 454.785 417.91 456.863C416.43 457.036 414.949 457.21 413.469 457.382C402.624 465.24 391.236 473.099 379.303 480.961C377.794 480.837 376.314 481.01 374.861 481.48C368.381 486.31 361.55 490.786 354.367 494.906C352.834 492.935 351.973 490.708 351.786 488.228C352.76 478.729 353.76 469.306 354.786 459.962C355.731 456.001 356.457 451.939 356.964 447.776C358.544 445.171 360.365 442.782 362.431 440.608C366.229 438.558 370.036 436.462 373.853 434.321C374.882 432.849 375.91 431.379 376.939 429.908C378.41 430.3 378.786 429.655 378.064 427.975C380.532 426.463 383.085 425.188 385.722 424.154C386.712 422.819 387.601 421.44 388.39 420.015C394.414 417.19 400.087 413.074 405.408 407.67C410.163 404.804 414.947 402.069 419.758 399.465C422.895 395.61 426.389 392.125 430.243 389.009C433.355 388.157 435.682 386.234 437.224 383.241C455.222 371.123 473.068 359.432 490.758 348.169C491.787 346.697 492.816 345.227 493.845 343.756C495.316 344.148 495.691 343.504 494.969 341.824C502.206 337.552 509.36 333.264 516.429 328.96C517.179 327.672 517.93 326.383 518.679 325.095C522.768 323.244 526.574 321.148 530.102 318.808C530.575 317.55 531.185 316.352 531.933 315.217C548.025 304.686 564.057 294.182 580.031 283.707C586.079 278.947 592.126 274.189 598.174 269.43C634.338 246.259 670.489 222.973 706.628 199.574C709.569 196.884 712.412 194.226 715.151 191.599ZM670.76 227.854C672.696 228.054 673.951 227.232 674.524 225.388C677.125 226.09 678.241 225.359 677.87 223.196C685.528 219.736 692.498 215.169 698.782 209.496C701.414 211.058 702.713 210.606 702.676 208.141C705.277 208.843 706.393 208.112 706.022 205.949C724.679 194.238 743.221 182.091 761.647 169.507C763.53 168.386 765.569 167.848 767.762 167.892C780.921 159.057 793.982 150.101 806.947 141.025C807.647 141.532 808.431 141.816 809.298 141.876C810.747 140.844 812.097 139.56 813.35 138.026C815.952 138.728 817.068 137.997 816.696 135.834C823.343 136.298 829.852 137.414 836.223 139.18C836.127 139.641 836.031 140.104 835.935 140.565C836.992 140.449 837.92 140.04 838.718 139.339C839.179 140.442 840.005 141.096 841.199 141.3C842.609 141.082 843.853 141.462 844.934 142.44C845.03 141.979 845.126 141.516 845.222 141.055C847.387 142.748 849.829 143.738 852.549 144.026C851.986 144.993 851.424 145.959 850.861 146.925C849.054 147.576 847.338 148.302 845.712 149.103C845.401 150.297 845.392 151.498 845.683 152.708C837.289 157.715 828.925 163.195 820.589 169.148C820.96 171.311 819.844 172.042 817.243 171.34C817.33 172.08 817.416 172.82 817.503 173.561C813.799 176.318 809.895 178.875 805.792 181.233C805.043 182.521 804.292 183.809 803.542 185.098C791.813 193.063 780.102 200.735 768.41 208.114C768.702 209.324 768.693 210.525 768.381 211.719C763.458 214.546 758.536 217.372 753.613 220.199C752.863 221.487 752.113 222.775 751.363 224.064C738.631 231.982 725.805 240.384 712.885 249.272C713.256 251.435 712.14 252.166 709.539 251.464C707.588 252.742 705.635 254.021 703.684 255.3C704.055 257.463 702.939 258.194 700.338 257.492C700.709 259.655 699.593 260.386 696.992 259.684C697.363 261.847 696.247 262.578 693.646 261.876C693.733 262.616 693.819 263.356 693.905 264.097C692.33 264.762 690.754 265.396 689.175 266C688.242 268.033 687.117 269.966 685.8 271.798C666.704 283.815 647.745 296.236 628.92 309.062C629.291 311.225 628.175 311.956 625.574 311.254C625.945 313.417 624.829 314.148 622.228 313.446C620.362 315.465 618.497 317.483 616.632 319.503C605.972 326.715 594.637 333.742 582.625 340.586C581.596 342.057 580.567 343.528 579.538 344.999C567.628 352.895 555.455 360.472 543.022 367.726C543.109 368.467 543.194 369.207 543.281 369.947C541.019 371.139 538.928 372.509 537.008 374.057C533.985 374.278 531.068 374.994 528.254 376.206C528.625 378.369 527.509 379.1 524.908 378.398C525.279 380.561 524.163 381.292 521.562 380.59C521.649 381.33 521.734 382.071 521.821 382.811C498.972 397.711 475.926 412.411 452.682 426.91C452.769 427.651 452.855 428.391 452.942 429.131C451.613 427.861 450.046 427.294 448.24 427.429C447.952 428.814 447.663 430.198 447.375 431.583C446.173 431.573 444.971 431.564 443.769 431.554C442.548 433.947 440.596 435.227 437.914 435.39C438.285 437.553 437.169 438.284 434.568 437.582C413.477 452.205 392.007 466.271 370.159 479.778C368.775 479.489 367.39 479.201 366.006 478.912C363.714 481.825 360.786 483.743 357.223 484.666C357.914 479.617 358.833 474.633 359.978 469.711C359.862 468.654 359.453 467.726 358.752 466.928C359.714 466.476 360.459 465.789 360.988 464.866C360.352 462.455 360.14 460.003 360.353 457.51C360.686 453.592 361.917 449.997 364.046 446.723C366.408 445.27 368.821 444.089 371.285 443.176C371.198 442.435 371.113 441.695 371.026 440.955C373.762 439.616 376.454 438.251 379.102 436.859C379.852 435.571 380.603 434.283 381.352 432.994C386.275 430.167 391.197 427.342 396.12 424.515C395.749 422.351 396.865 421.62 399.466 422.323C399.379 421.582 399.294 420.842 399.207 420.102C401.301 419.252 403.253 417.973 405.062 416.266C406.264 416.276 407.465 416.285 408.667 416.295C408.956 414.91 409.244 413.526 409.533 412.141C409.994 412.237 410.456 412.334 410.917 412.43C411.706 411.004 412.596 409.625 413.585 408.291C426.136 399.507 438.823 391.195 451.645 383.357C451.274 381.193 452.39 380.462 454.991 381.165C455.464 379.907 456.075 378.709 456.823 377.574C459.668 375.99 462.499 374.534 465.317 373.204C464.946 371.041 466.062 370.31 468.663 371.012C468.292 368.849 469.408 368.118 472.009 368.82C472.858 366.917 473.844 365.075 474.966 363.297C478.721 360.877 482.668 358.69 486.806 356.735C488.672 354.716 490.537 352.698 492.402 350.678C502.484 344.239 512.705 337.943 523.063 331.787C524.929 329.767 526.794 327.749 528.659 325.73C532.186 323.389 535.993 321.293 540.081 319.442C541.947 317.423 543.812 315.405 545.677 313.385C567.977 298.981 590.282 284.368 612.596 269.545C612.224 267.382 613.34 266.651 615.941 267.353C615.57 265.19 616.686 264.459 619.287 265.161C619.2 264.421 619.115 263.681 619.028 262.941C634.503 253.165 650.022 243.396 665.582 233.637C667.421 231.687 669.147 229.759 670.76 227.854Z"/>
</mask>
<path fill-rule="evenodd" clip-rule="evenodd" d="M715.151 191.599C721.372 188.887 726.809 185.325 731.462 180.913C733.222 180.558 734.981 180.202 736.741 179.846C740.058 177.174 743.359 174.611 746.649 172.16C747.989 171.928 749.33 171.846 750.672 171.915C755.873 168.324 761.085 164.113 766.306 159.282C772.334 156.926 777.632 153.455 782.199 148.87C783.959 148.514 785.718 148.158 787.477 147.803C789.777 146.049 791.965 144.217 794.04 142.308C795.52 142.136 797.001 141.962 798.481 141.789C804.068 137.894 809.601 133.871 815.081 129.719C816.526 129.695 817.91 129.984 819.235 130.584C819.331 130.123 819.427 129.661 819.523 129.2C822.014 129.959 824.503 130.719 826.994 131.479C827.09 131.018 827.186 130.555 827.282 130.094C837.72 133.357 848.28 136.4 858.966 139.224C863.331 140.567 864.234 143.163 861.677 147.012C855.239 151.237 848.826 155.439 842.438 159.616C841.677 162.22 840.047 163.687 837.549 164.014C833.602 168.224 829.409 172.166 824.973 175.84C819.093 179.034 813.335 182.409 807.696 185.963C806.355 187.917 805.091 189.94 803.902 192.035C797.868 196.559 791.734 200.577 785.5 204.091C783.44 206.184 781.435 208.295 779.486 210.422C772.154 214.338 765.14 218.535 758.444 223.011C757.455 224.346 756.565 225.725 755.776 227.15C754.305 226.758 753.929 227.402 754.651 229.083C749.748 231.913 744.826 234.739 739.883 237.562C738.369 239.259 736.923 241.004 735.542 242.797C731.488 244.952 727.541 247.139 723.701 249.359C720.721 252.109 717.74 254.858 714.76 257.608C706.567 262.287 698.577 267.124 690.79 272.115C689.761 273.586 688.733 275.057 687.704 276.528C677.687 282.981 667.467 289.279 657.043 295.42C655.177 297.439 653.312 299.457 651.447 301.476C648.601 302.835 645.769 304.291 642.952 305.846C641.963 307.18 641.073 308.56 640.284 309.985C627.01 319.69 613.208 328.732 598.878 337.111C595.992 339.761 593.15 342.419 590.355 345.086C588.412 345.163 586.471 345.239 584.528 345.316C584.9 347.48 583.784 348.211 581.182 347.508C581.269 348.249 581.355 348.989 581.442 349.729C570.132 356.523 559.075 363.369 548.271 370.265C548.358 371.005 548.444 371.745 548.531 372.486C534.164 381.348 519.761 390.385 505.322 399.597C500.061 404.061 494.85 408.272 489.689 412.23C488.067 412.384 486.447 412.649 484.829 413.023C480.595 415.582 476.595 418.6 472.83 422.08C471.086 423.238 469.188 423.686 467.133 423.421C464.752 426.537 461.686 428.546 457.932 429.449C458.019 430.189 458.104 430.929 458.191 431.67C447.795 437.198 438.316 443.408 429.751 450.302C428.129 450.456 426.509 450.721 424.891 451.095C422.339 452.862 420.012 454.785 417.91 456.863C416.43 457.036 414.949 457.21 413.469 457.382C402.624 465.24 391.236 473.099 379.303 480.961C377.794 480.837 376.314 481.01 374.861 481.48C368.381 486.31 361.55 490.786 354.367 494.906C352.834 492.935 351.973 490.708 351.786 488.228C352.76 478.729 353.76 469.306 354.786 459.962C355.731 456.001 356.457 451.939 356.964 447.776C358.544 445.171 360.365 442.782 362.431 440.608C366.229 438.558 370.036 436.462 373.853 434.321C374.882 432.849 375.91 431.379 376.939 429.908C378.41 430.3 378.786 429.655 378.064 427.975C380.532 426.463 383.085 425.188 385.722 424.154C386.712 422.819 387.601 421.44 388.39 420.015C394.414 417.19 400.087 413.074 405.408 407.67C410.163 404.804 414.947 402.069 419.758 399.465C422.895 395.61 426.389 392.125 430.243 389.009C433.355 388.157 435.682 386.234 437.224 383.241C455.222 371.123 473.068 359.432 490.758 348.169C491.787 346.697 492.816 345.227 493.845 343.756C495.316 344.148 495.691 343.504 494.969 341.824C502.206 337.552 509.36 333.264 516.429 328.96C517.179 327.672 517.93 326.383 518.679 325.095C522.768 323.244 526.574 321.148 530.102 318.808C530.575 317.55 531.185 316.352 531.933 315.217C548.025 304.686 564.057 294.182 580.031 283.707C586.079 278.947 592.126 274.189 598.174 269.43C634.338 246.259 670.489 222.973 706.628 199.574C709.569 196.884 712.412 194.226 715.151 191.599ZM670.76 227.854C672.696 228.054 673.951 227.232 674.524 225.388C677.125 226.09 678.241 225.359 677.87 223.196C685.528 219.736 692.498 215.169 698.782 209.496C701.414 211.058 702.713 210.606 702.676 208.141C705.277 208.843 706.393 208.112 706.022 205.949C724.679 194.238 743.221 182.091 761.647 169.507C763.53 168.386 765.569 167.848 767.762 167.892C780.921 159.057 793.982 150.101 806.947 141.025C807.647 141.532 808.431 141.816 809.298 141.876C810.747 140.844 812.097 139.56 813.35 138.026C815.952 138.728 817.068 137.997 816.696 135.834C823.343 136.298 829.852 137.414 836.223 139.18C836.127 139.641 836.031 140.104 835.935 140.565C836.992 140.449 837.92 140.04 838.718 139.339C839.179 140.442 840.005 141.096 841.199 141.3C842.609 141.082 843.853 141.462 844.934 142.44C845.03 141.979 845.126 141.516 845.222 141.055C847.387 142.748 849.829 143.738 852.549 144.026C851.986 144.993 851.424 145.959 850.861 146.925C849.054 147.576 847.338 148.302 845.712 149.103C845.401 150.297 845.392 151.498 845.683 152.708C837.289 157.715 828.925 163.195 820.589 169.148C820.96 171.311 819.844 172.042 817.243 171.34C817.33 172.08 817.416 172.82 817.503 173.561C813.799 176.318 809.895 178.875 805.792 181.233C805.043 182.521 804.292 183.809 803.542 185.098C791.813 193.063 780.102 200.735 768.41 208.114C768.702 209.324 768.693 210.525 768.381 211.719C763.458 214.546 758.536 217.372 753.613 220.199C752.863 221.487 752.113 222.775 751.363 224.064C738.631 231.982 725.805 240.384 712.885 249.272C713.256 251.435 712.14 252.166 709.539 251.464C707.588 252.742 705.635 254.021 703.684 255.3C704.055 257.463 702.939 258.194 700.338 257.492C700.709 259.655 699.593 260.386 696.992 259.684C697.363 261.847 696.247 262.578 693.646 261.876C693.733 262.616 693.819 263.356 693.905 264.097C692.33 264.762 690.754 265.396 689.175 266C688.242 268.033 687.117 269.966 685.8 271.798C666.704 283.815 647.745 296.236 628.92 309.062C629.291 311.225 628.175 311.956 625.574 311.254C625.945 313.417 624.829 314.148 622.228 313.446C620.362 315.465 618.497 317.483 616.632 319.503C605.972 326.715 594.637 333.742 582.625 340.586C581.596 342.057 580.567 343.528 579.538 344.999C567.628 352.895 555.455 360.472 543.022 367.726C543.109 368.467 543.194 369.207 543.281 369.947C541.019 371.139 538.928 372.509 537.008 374.057C533.985 374.278 531.068 374.994 528.254 376.206C528.625 378.369 527.509 379.1 524.908 378.398C525.279 380.561 524.163 381.292 521.562 380.59C521.649 381.33 521.734 382.071 521.821 382.811C498.972 397.711 475.926 412.411 452.682 426.91C452.769 427.651 452.855 428.391 452.942 429.131C451.613 427.861 450.046 427.294 448.24 427.429C447.952 428.814 447.663 430.198 447.375 431.583C446.173 431.573 444.971 431.564 443.769 431.554C442.548 433.947 440.596 435.227 437.914 435.39C438.285 437.553 437.169 438.284 434.568 437.582C413.477 452.205 392.007 466.271 370.159 479.778C368.775 479.489 367.39 479.201 366.006 478.912C363.714 481.825 360.786 483.743 357.223 484.666C357.914 479.617 358.833 474.633 359.978 469.711C359.862 468.654 359.453 467.726 358.752 466.928C359.714 466.476 360.459 465.789 360.988 464.866C360.352 462.455 360.14 460.003 360.353 457.51C360.686 453.592 361.917 449.997 364.046 446.723C366.408 445.27 368.821 444.089 371.285 443.176C371.198 442.435 371.113 441.695 371.026 440.955C373.762 439.616 376.454 438.251 379.102 436.859C379.852 435.571 380.603 434.283 381.352 432.994C386.275 430.167 391.197 427.342 396.12 424.515C395.749 422.351 396.865 421.62 399.466 422.323C399.379 421.582 399.294 420.842 399.207 420.102C401.301 419.252 403.253 417.973 405.062 416.266C406.264 416.276 407.465 416.285 408.667 416.295C408.956 414.91 409.244 413.526 409.533 412.141C409.994 412.237 410.456 412.334 410.917 412.43C411.706 411.004 412.596 409.625 413.585 408.291C426.136 399.507 438.823 391.195 451.645 383.357C451.274 381.193 452.39 380.462 454.991 381.165C455.464 379.907 456.075 378.709 456.823 377.574C459.668 375.99 462.499 374.534 465.317 373.204C464.946 371.041 466.062 370.31 468.663 371.012C468.292 368.849 469.408 368.118 472.009 368.82C472.858 366.917 473.844 365.075 474.966 363.297C478.721 360.877 482.668 358.69 486.806 356.735C488.672 354.716 490.537 352.698 492.402 350.678C502.484 344.239 512.705 337.943 523.063 331.787C524.929 329.767 526.794 327.749 528.659 325.73C532.186 323.389 535.993 321.293 540.081 319.442C541.947 317.423 543.812 315.405 545.677 313.385C567.977 298.981 590.282 284.368 612.596 269.545C612.224 267.382 613.34 266.651 615.941 267.353C615.57 265.19 616.686 264.459 619.287 265.161C619.2 264.421 619.115 263.681 619.028 262.941C634.503 253.165 650.022 243.396 665.582 233.637C667.421 231.687 669.147 229.759 670.76 227.854Z" fill="#483FB2" stroke="white" stroke-width="10" mask="url(#path-2-inside-1_2815_2041)"/>
</g>
<path opacity="0.043" fill-rule="evenodd" clip-rule="evenodd" d="M698.446 337.633C708.822 332.355 718.581 325.962 727.722 318.453C729.341 318.079 730.961 317.814 732.583 317.66C736.411 314.686 740.228 311.389 744.034 307.767C745.542 307.891 747.023 307.718 748.476 307.248C759.715 299.501 770.965 291.733 782.223 283.944C783.621 282.955 785.102 282.783 786.665 283.425C788.531 281.405 790.396 279.387 792.261 277.368C793.941 277.173 795.604 277.278 797.251 277.685C798.28 276.214 799.308 274.744 800.337 273.272C807.308 269.99 813.721 265.789 819.576 260.668C823.411 260.465 826.381 258.917 828.489 256.025C829.831 256.094 831.173 256.012 832.513 255.78C838.123 251.418 843.796 247.304 849.531 243.435C852.869 242.509 856.205 241.519 859.54 240.465C863.95 236.941 868.507 233.557 873.212 230.312C876.427 228.896 879.763 227.906 883.221 227.342C886.839 224.491 890.42 221.745 893.965 219.107C895.842 218.557 897.741 218.11 899.662 217.766C900.503 216.202 901.94 215.659 903.974 216.137C907.471 211.592 912.298 209.227 918.453 209.042C921.598 206.34 924.761 203.869 927.943 201.629C929.59 202.037 931.253 202.142 932.933 201.947C936.504 198.101 941.19 195.827 946.995 195.126C949.544 191.638 953.255 190.003 958.128 190.223C959.083 188.937 960.477 188.024 962.311 187.483C971.214 193.844 980.223 200.295 989.336 206.837C989.695 209.161 989.354 211.377 988.312 213.486C987.851 213.39 987.389 213.293 986.928 213.197C986.332 215.567 985.067 217.591 983.135 219.269C982.53 219.415 981.929 219.41 981.332 219.254C978.705 224.363 975.619 228.776 972.073 232.493C970.496 233.128 968.919 233.762 967.342 234.397C964.151 239.935 959.959 243.877 954.766 246.222C951.586 251.952 947.255 255.985 941.772 258.322C937.808 265.103 932.64 269.684 926.268 272.065C925.426 274.353 923.935 275.727 921.797 276.189C919.12 279.763 916.043 282.974 912.567 285.823C910.941 286.624 909.225 287.35 907.418 288C906.23 290.095 904.966 292.119 903.625 294.072C897.398 298.309 891.264 302.328 885.223 306.128C881.771 309.983 878.319 313.839 874.867 317.694C868.838 321.206 862.8 324.763 856.753 328.365C857.616 330.273 857.101 331.009 855.21 330.572C854.524 332.995 853.034 334.37 850.739 334.696C849.153 336.533 847.566 338.369 845.98 340.205C836.948 347.685 827.328 353.987 817.121 359.111C815.248 362.08 813.008 364.743 810.401 367.101C807.799 366.398 806.684 367.129 807.055 369.293C805.366 369.685 804.154 370.878 803.42 372.869C786.232 384.196 769.223 395.338 752.395 406.297C750.992 408.412 749.587 410.527 748.184 412.642C726.753 427.427 705.563 441.309 684.611 454.29C683.583 455.762 682.554 457.232 681.525 458.703C667.52 466.419 653.858 475.369 640.538 485.555C637.936 484.853 636.82 485.584 637.192 487.747C617.314 500.161 596.82 513.587 575.711 528.025C574.509 528.015 573.307 528.006 572.105 527.996C559.319 536.171 546.815 544.76 534.593 553.767C532.538 553.502 530.64 553.949 528.897 555.108C522.987 559.71 516.896 564.098 510.624 568.274C507.01 569.095 503.534 570.177 500.197 571.519C494.677 575.429 489.144 579.452 483.597 583.589C479.983 584.41 476.507 585.492 473.17 586.834C468.861 590.205 464.443 593.498 459.916 596.712C457.613 597.472 455.252 597.823 452.835 597.765C449.217 600.616 445.636 603.361 442.091 605.999C438.866 606.823 435.669 607.722 432.5 608.696C429.895 610.801 427.289 612.907 424.683 615.012C422.462 615.272 420.241 615.531 418.02 615.791C415.442 617.728 412.976 619.741 410.622 621.833C408.296 622.283 405.936 622.633 403.541 622.886C400.932 626.34 397.221 627.974 392.407 627.789C390.162 630.81 387.1 632.218 383.22 632.014C378.506 635.311 373.41 636.656 367.933 636.052C365.282 625.284 362.778 614.771 360.42 604.511C361.239 601.277 362.922 598.979 365.468 597.618C367.255 593.28 370.096 590.622 373.992 589.643C375.756 584.634 378.833 581.422 383.222 580.01C384.526 578.189 385.651 576.257 386.597 574.212C389.278 571.462 392.345 569.452 395.798 568.184C397.102 566.364 398.227 564.432 399.173 562.387C402.251 560.363 405.318 558.354 408.374 556.359C410.48 553.885 412.581 551.313 414.677 548.643C416.202 547.727 417.918 547.002 419.825 546.466C424.583 542.284 429.011 537.789 433.108 532.982C437.576 529.632 442.037 526.709 446.492 524.214C448.561 521.538 450.662 518.966 452.794 516.498C459.029 512.384 465.303 508.274 471.615 504.168C472.377 501.564 474.006 500.097 476.504 499.77C479.182 496.196 482.258 492.985 485.734 490.137C491.629 486.904 497.389 483.53 503.012 480.013C502.925 479.273 502.839 478.532 502.753 477.792C505.408 474.827 508.614 472.727 512.372 471.49C513.12 470.354 513.731 469.157 514.204 467.899C525.349 459.207 536.92 451.627 548.918 445.157C550.106 443.062 551.37 441.039 552.711 439.086C563.65 430.531 575.083 423.041 587.006 416.618C588.035 415.146 589.064 413.676 590.093 412.205C611.411 398.202 632.602 384.319 653.665 370.557C655.53 368.537 657.396 366.519 659.261 364.5C669.685 358.359 679.906 352.062 689.922 345.608C692.864 342.918 695.706 340.26 698.446 337.633ZM372.707 628.74C371.256 621.537 369.233 614.494 366.636 607.612C366.038 604.698 366.798 602.209 368.915 600.142C370.235 599.269 371.811 598.634 373.645 598.238C372.689 595.728 373.439 594.439 375.895 594.373C377.563 591.397 380.028 589.382 383.294 588.331C384.057 587.126 384.206 585.833 383.741 584.451C387.427 581.781 391.331 579.223 395.452 576.779C395.6 575.487 395.75 574.193 395.899 572.9C398.477 571.761 401.03 570.486 403.557 569.079C403.47 568.338 403.384 567.598 403.297 566.858C405.205 566.322 406.921 565.597 408.446 564.68C409.148 562.688 410.134 560.846 411.403 559.157C415.445 556.275 419.627 553.535 423.95 550.937C424.896 548.892 426.021 546.959 427.325 545.139C430.061 543.801 432.753 542.436 435.401 541.044C435.03 538.88 436.146 538.149 438.747 538.852C439.59 535.632 441.542 534.353 444.602 535.016C444.067 532.814 444.591 530.877 446.174 529.204C453.004 523.426 460.393 518.586 468.341 514.682C468.653 513.488 468.662 512.286 468.37 511.076C472.186 508.935 475.993 506.839 479.792 504.789C480.542 503.5 481.293 502.212 482.042 500.924C484.734 499.558 487.427 498.194 490.118 496.828C489.747 494.665 490.863 493.934 493.464 494.636C493.377 493.896 493.292 493.156 493.205 492.415C495.039 492.02 496.615 491.385 497.935 490.512C498.408 489.254 499.019 488.057 499.767 486.921C503.205 485.918 505.81 483.813 507.584 480.604C518.08 473.761 528.536 466.911 538.952 460.054C539.24 458.67 539.529 457.286 539.817 455.901C545.384 452.326 551.144 448.952 557.095 445.778C558.96 443.758 560.825 441.74 562.69 439.721C566.497 437.625 570.306 435.529 574.113 433.433C577.093 430.683 580.074 427.934 583.054 425.184C588.267 422.412 593.189 419.586 597.823 416.705C597.451 414.541 598.567 413.81 601.169 414.513C603.505 411.388 606.572 409.379 610.37 408.485C609.999 406.321 611.114 405.59 613.716 406.293C613.344 404.129 614.46 403.398 617.062 404.101C616.975 403.36 616.889 402.62 616.802 401.88C620.535 400.076 624.064 398.163 627.388 396.14C627.215 394.66 627.504 393.275 628.253 391.987C637.501 386.694 646.606 381.129 655.569 375.287C657.434 373.268 659.299 371.25 661.164 369.23C664.919 368.327 667.985 366.318 670.366 363.202C671.358 363.953 672.464 364.424 673.683 364.616C674.067 362.77 675.183 362.039 677.029 362.424C676.657 360.26 677.773 359.529 680.374 360.232C680.003 358.068 681.119 357.337 683.72 358.04C683.826 356.377 684.663 355.829 686.23 356.396C685.859 354.232 686.974 353.501 689.576 354.204C689.205 352.04 690.32 351.309 692.922 352.012C692.55 349.848 693.666 349.117 696.268 349.82C696.181 349.079 696.095 348.339 696.008 347.599C699.732 345.84 703.261 343.928 706.594 341.859C706.223 339.696 707.338 338.965 709.94 339.667C709.568 337.504 710.684 336.773 713.286 337.475C717.842 334.879 721.939 331.399 725.573 327.034C727.89 326.314 730.208 325.592 732.525 324.871C742.054 317.239 751.586 310.197 761.124 303.744C763.202 303.426 765.284 303.258 767.368 303.24C766.997 301.076 768.113 300.345 770.714 301.048C773.051 297.923 776.118 295.914 779.915 295.02C779.544 292.856 780.66 292.125 783.261 292.828C782.89 290.664 784.006 289.933 786.607 290.636C786.236 288.472 787.352 287.741 789.953 288.444C793.017 283.805 797.2 281.065 802.5 280.224C802.129 278.06 803.245 277.329 805.846 278.032C805.423 275.402 806.024 275.407 807.649 278.046C809.797 276.086 812.167 274.533 814.759 273.388C814.388 271.225 815.504 270.494 818.105 271.196C824.874 266.434 831.663 261.588 838.469 256.66C839.977 256.783 841.458 256.611 842.911 256.141C850.008 252.103 856.56 247.811 862.568 243.263C864.049 243.09 865.529 242.916 867.01 242.744C869.598 240.767 872.064 238.754 874.409 236.701C875.889 236.529 877.37 236.355 878.85 236.182C881.195 234.13 883.661 232.116 886.249 230.14C889.851 229.906 892.682 228.449 894.744 225.77C896.224 225.598 897.705 225.424 899.185 225.251C901.394 222.317 904.504 220.678 908.516 220.334C909.966 219.302 911.316 218.018 912.569 216.483C914.05 216.311 915.53 216.137 917.011 215.964C918.264 214.43 919.614 213.146 921.064 212.114C924.465 210.908 927.941 209.827 931.491 208.869C932.874 207.698 934.225 206.415 935.543 205.019C937.764 204.759 939.985 204.5 942.206 204.24C943.697 202.865 945.187 201.49 946.677 200.116C948.898 199.856 951.119 199.597 953.34 199.337C955.637 196.644 958.608 195.097 962.253 194.693C969.693 199.03 976.865 203.896 983.77 209.289C981.308 211.236 979.111 214.27 977.178 218.389C975.602 219.024 974.025 219.657 972.448 220.292C972.913 221.673 972.764 222.966 972.001 224.172C970.049 225.45 968.097 226.729 966.146 228.008C964.957 230.103 963.693 232.126 962.352 234.079C959.888 234.992 957.475 236.174 955.113 237.627C955.975 239.535 955.46 240.271 953.569 239.833C952.867 241.826 951.881 243.667 950.613 245.357C947.921 246.722 945.228 248.087 942.536 249.452C942.248 250.837 941.96 252.221 941.671 253.606C937.371 257.899 932.352 261.187 926.614 263.47C926.466 264.763 926.316 266.056 926.167 267.349C921.061 271.09 915.903 274.469 910.692 277.487C911.555 279.395 911.04 280.131 909.149 279.694C908.678 280.799 908.207 281.905 907.736 283.01C903.646 284.605 900.064 287.35 896.991 291.245C894.133 292.568 891.302 294.024 888.497 295.614C887.372 297.547 886.247 299.479 885.122 301.412C879.92 305.12 874.762 308.499 869.647 311.55C868.618 313.021 867.589 314.491 866.561 315.963C864.985 316.628 863.409 317.262 861.83 317.866C859.384 320.148 857.144 322.811 855.109 325.856C845.772 331.651 836.431 337.771 827.087 344.214C825.962 346.146 824.837 348.079 823.712 350.011C818.86 352.608 814.076 355.343 809.363 358.217C809.45 358.957 809.535 359.697 809.622 360.438C803.662 363.656 797.903 367.031 792.345 370.561C791.316 372.033 790.287 373.503 789.258 374.974C783.661 378.673 777.762 382.14 771.562 385.372C770.799 386.577 770.65 387.87 771.115 389.251C764.1 393.081 757.225 397.185 750.492 401.567C749.742 402.855 748.991 404.143 748.242 405.432C725.069 421.048 701.648 436.392 677.978 451.464C676.949 452.935 675.92 454.405 674.891 455.876C662.177 464.299 648.889 472.605 635.029 480.796C635.116 481.536 635.201 482.277 635.288 483.017C629.147 486.981 623.014 491 616.886 495.073C615.893 494.322 614.788 493.851 613.569 493.66C613.184 495.505 612.068 496.236 610.223 495.852C610.594 498.015 609.478 498.746 606.877 498.044C607.248 500.207 606.132 500.938 603.531 500.235C603.618 500.976 603.703 501.716 603.79 502.456C601.108 502.62 599.156 503.899 597.935 506.292C595.334 505.59 594.218 506.321 594.589 508.484C583.806 515.317 573.072 522.349 562.385 529.582C560.904 529.755 559.423 529.929 557.943 530.101C547.089 537.157 535.979 544.833 524.613 553.132C522.558 553.62 520.476 553.789 518.369 553.636C510.54 559.395 502.638 564.971 494.659 570.365C492.58 570.683 490.498 570.852 488.414 570.87C481.619 575.662 474.831 580.507 468.05 585.406C466.762 584.656 465.377 584.368 463.897 584.541C459.641 588.187 455.084 591.57 450.225 594.693C448.032 595.25 445.811 595.509 443.562 595.472C443.933 597.635 442.817 598.366 440.216 597.664C440.587 599.827 439.471 600.558 436.87 599.856C434.536 601.728 432.209 603.65 429.89 605.624C427.631 605.257 425.41 605.516 423.227 606.403C423.314 607.143 423.399 607.883 423.486 608.624C420.214 608.506 417.8 609.689 416.247 612.171C413.614 610.609 412.315 611.061 412.353 613.527C411.151 613.517 409.949 613.508 408.747 613.498C406.42 615.42 404.094 617.344 401.767 619.266C399.135 617.704 397.836 618.156 397.873 620.622C395.502 620.052 393.786 620.777 392.724 622.799C390.646 623.117 388.564 623.286 386.48 623.304C382.588 626.539 377.998 628.351 372.707 628.74Z" fill="white"/>
<path opacity="0.043" fill-rule="evenodd" clip-rule="evenodd" d="M811.943 399.564C813.777 399.228 815.676 398.781 817.639 398.223C824.866 392.134 832.03 386.645 839.128 381.754C842.678 380.796 846.154 379.715 849.555 378.509C856.078 373.76 862.727 369.006 869.501 364.247C872.879 363.38 876.215 362.39 879.51 361.276C884.027 358.103 888.445 354.809 892.764 351.398C895.583 351.077 897.857 349.986 899.585 348.124C900.787 348.134 901.989 348.143 903.191 348.153C906.304 345.173 909.976 342.567 914.209 340.337C916.244 339.283 918.374 338.883 920.598 339.14C924.216 336.289 927.798 333.544 931.343 330.906C933.678 330.407 936.038 330.057 938.424 329.853C940.663 327.632 943.129 325.618 945.822 323.811C948.015 323.254 950.236 322.995 952.485 323.032C954.83 320.98 957.296 318.966 959.884 316.99C962.224 316.314 964.585 315.963 966.965 315.937C969.286 314.034 971.613 312.111 973.945 310.169C975.33 310.457 976.714 310.746 978.099 311.034C981.925 307.3 986.751 304.934 992.578 303.939C994.699 301.7 997.434 300.705 1000.78 300.954C1004.09 297.829 1008.12 296.382 1012.88 296.614C1014.97 294.309 1017.7 293.314 1021.09 293.629C1021.47 292.984 1021.84 292.34 1022.22 291.696C1025.49 291.613 1028.64 290.946 1031.66 289.692C1033.82 290.92 1035.35 290.516 1036.25 288.48C1045.3 286.674 1054.33 285.545 1063.32 285.092C1067.26 288.596 1070.93 292.369 1074.32 296.414C1074.88 298.647 1075.37 300.915 1075.79 303.221C1074.97 307.169 1073.69 310.996 1071.96 314.7C1064.26 328.017 1055.33 340.843 1045.16 353.177C1044.7 353.081 1044.23 352.984 1043.77 352.888C1040.41 357.484 1037.04 362.08 1033.68 366.675C1032.1 367.31 1030.52 367.944 1028.95 368.579C1027.18 373.588 1024.11 376.799 1019.72 378.212C1017.66 382.809 1014.44 386.111 1010.07 388.119C1006.72 392.652 1003.13 396.598 999.296 399.959C996.866 400.809 995.278 402.645 994.536 405.468C991.844 406.834 989.152 408.198 986.46 409.564C985.618 411.851 984.127 413.226 981.989 413.688C981.143 415.438 980.297 417.188 979.451 418.938C976.533 420.752 973.563 422.3 970.538 423.581C968.656 427.375 966.32 430.5 963.529 432.955C959.73 435.005 955.923 437.101 952.106 439.243C952.969 441.151 952.454 441.886 950.563 441.449C948.592 444.164 946.492 446.736 944.261 449.165C940.462 451.215 936.655 453.31 932.838 455.452C929.108 459.49 925.377 463.528 921.647 467.566C915.309 471.26 909.035 475.37 902.826 479.896C901.126 483.095 898.659 485.109 895.427 485.938C895.029 488.167 893.818 489.359 891.793 489.515C888.813 492.265 885.832 495.014 882.851 497.764C876.822 501.276 870.784 504.834 864.737 508.435C863.791 510.48 862.666 512.413 861.362 514.233C858.517 515.591 855.684 517.048 852.868 518.602C852.12 519.738 851.509 520.935 851.036 522.193C835.591 533.865 819.698 544.277 803.357 553.429C803.444 554.17 803.529 554.91 803.616 555.65C793.166 562.03 782.946 568.328 772.955 574.542C771.09 576.561 769.225 578.579 767.359 580.599C754.213 588.988 740.925 597.294 727.497 605.518C722.286 609.73 717.075 613.94 711.863 618.151C710.241 618.305 708.622 618.57 707.003 618.944C704.42 620.901 701.954 622.914 699.605 624.987C698.152 625.457 696.671 625.629 695.163 625.506C683.496 633.651 671.271 642.058 658.487 650.728C657.007 650.901 655.526 651.075 654.046 651.247C647.504 656.08 640.855 660.834 634.1 665.51C631.509 665.36 629.514 666.269 628.115 668.235C626.913 668.225 625.711 668.216 624.509 668.206C619.07 672.599 613.536 676.623 607.909 680.277C605.474 681.038 602.975 681.48 600.41 681.603C595.883 684.818 591.466 688.111 587.156 691.482C583.636 692.514 580.16 693.595 576.729 694.726C572.476 697.805 568.015 700.728 563.345 703.494C562.003 703.426 560.662 703.507 559.322 703.739C556.716 705.844 554.111 707.951 551.505 710.056C549.284 710.315 547.063 710.575 544.842 710.834C542.29 712.602 539.963 714.524 537.862 716.603C532.014 717.401 527.188 719.766 523.382 723.698C521.042 724.374 518.681 724.725 516.301 724.75C514.753 725.957 513.263 727.332 511.83 728.875C509.625 729.35 507.404 729.61 505.167 729.653C502.667 732.644 499.465 734.143 495.562 734.153C492.041 736.651 488.195 737.777 484.025 737.527C482.641 738.698 481.29 739.981 479.972 741.378C476.739 740.79 474.143 741.693 472.184 744.089C470.06 742.516 468.44 742.78 467.324 744.882C463.256 745.026 459.411 746.151 455.787 748.256C451.723 748.459 447.743 749.075 443.845 750.102C438.322 750.97 432.823 750.787 427.347 749.553C422.802 745.491 419.236 740.655 416.646 735.044C416.916 730.301 418.108 725.734 420.224 721.344C422.874 716.051 425.644 710.849 428.531 705.74C429.128 705.895 429.729 705.901 430.334 705.754C433.535 699.484 437.232 693.873 441.425 688.924C441.886 689.02 442.348 689.117 442.809 689.213C450.253 679.713 458.185 670.532 466.606 661.668C469.036 660.819 470.623 658.983 471.365 656.159C472.942 655.524 474.519 654.891 476.096 654.256C475.233 652.347 475.748 651.612 477.639 652.049C480.578 647.426 484.257 644.22 488.672 642.43C487.809 640.522 488.324 639.786 490.215 640.224C492.93 635.462 496.607 632.257 501.248 630.605C505.364 623.757 510.672 619.085 517.17 616.587C517.881 614.666 518.958 612.965 520.4 611.482C523.01 609.519 525.384 607.366 527.525 605.021C529.432 604.486 531.149 603.761 532.674 602.844C538.114 595.48 544.536 590.078 551.942 586.635C555.471 583.002 559.062 579.056 562.715 574.795C567.429 571.92 572.212 569.186 577.065 566.589C578.253 564.494 579.517 562.471 580.858 560.518C583.459 561.22 584.575 560.489 584.204 558.326C585.893 557.933 587.104 556.74 587.838 554.749C592.852 551.977 597.775 549.15 602.606 546.27C603.356 544.981 604.107 543.693 604.856 542.405C608.279 541.613 610.884 539.508 612.673 536.088C615.345 534.72 618.037 533.355 620.749 531.993C621.034 531.058 621.457 530.183 622.019 529.368C627.142 525.787 632.027 521.989 636.672 517.975C643.489 513.611 650.363 509.505 657.295 505.66C658.324 504.188 659.353 502.718 660.381 501.247C663.227 499.888 666.059 498.432 668.876 496.877C669.625 495.589 670.376 494.301 671.126 493.012C674.866 490.632 678.812 488.444 682.966 486.451C683.716 485.162 684.467 483.874 685.216 482.586C727.084 453.601 769.326 425.927 811.943 399.564ZM725.18 462.382C741.041 452.71 756.515 442.572 771.604 431.968C773.462 430.678 775.5 430.14 777.719 430.353C777.348 428.19 778.464 427.459 781.065 428.161C781.171 426.498 782.007 425.95 783.574 426.517C783.203 424.354 784.319 423.623 786.92 424.325C786.549 422.162 787.665 421.431 790.266 422.133C789.895 419.97 791.011 419.239 793.612 419.941C796.688 417.605 799.668 414.855 802.554 411.692C804.034 411.52 805.515 411.346 806.996 411.173C811.675 407.053 816.791 403.304 822.341 399.925C824.321 398.606 826.499 397.976 828.874 398.036C837.614 391.912 846.353 385.787 855.093 379.663C857.314 379.404 859.535 379.144 861.756 378.885C868.482 373.703 875.41 368.766 882.538 364.074C884.775 364.03 886.996 363.771 889.201 363.296C890.816 361.715 892.769 360.436 895.057 359.46C894.685 357.296 895.801 356.565 898.402 357.268C900.729 355.345 903.056 353.422 905.383 351.499C908.015 353.061 909.314 352.609 909.277 350.144C911.878 350.846 912.994 350.115 912.623 347.952C913.825 347.962 915.026 347.971 916.228 347.981C918.387 345.685 920.714 343.762 923.208 342.212C925.401 341.656 927.622 341.396 929.871 341.434C929.5 339.27 930.616 338.539 933.217 339.242C932.846 337.078 933.962 336.347 936.563 337.05C936.948 335.204 938.063 334.473 939.909 334.858C939.822 334.117 939.736 333.377 939.649 332.637C940.978 333.907 942.545 334.474 944.351 334.339C943.98 332.175 945.096 331.444 947.697 332.147C947.326 329.983 948.441 329.252 951.043 329.955C953.035 327.168 955.63 326.264 958.831 327.244C958.459 325.08 959.575 324.349 962.176 325.052C964.51 323.18 966.837 321.257 969.157 319.283C970.15 320.034 971.255 320.505 972.474 320.697C975.32 318.618 978.065 316.421 980.709 314.106C982.93 313.847 985.151 313.587 987.372 313.328C990.071 310.318 993.412 308.727 997.395 308.554C999.418 307.511 1001.5 306.742 1003.65 306.247C1003.75 305.638 1003.99 305.084 1004.36 304.588C1007.52 304.644 1010.12 303.739 1012.15 301.877C1013.39 302.257 1014.64 302.637 1015.88 303.017C1017.14 301.482 1018.49 300.198 1019.94 299.166C1021.27 299.773 1022.65 300.062 1024.09 300.032C1025.41 298.635 1026.76 297.352 1028.14 296.181C1030.06 298.061 1031.54 297.888 1032.58 295.662C1037.7 295.03 1042.42 294.328 1046.75 293.557C1047.69 291.211 1048.76 291.313 1049.93 293.86C1051.13 293.278 1051.93 292.36 1052.31 291.106C1053.97 290.921 1054.57 291.526 1054.1 292.923C1057.18 292.37 1060.24 292.164 1063.26 292.303C1065.85 296.224 1068.27 300.219 1070.51 304.288C1067.3 312.191 1063.03 320.569 1057.69 329.424C1055.8 328.987 1055.29 329.723 1056.15 331.631C1055.55 331.476 1054.95 331.47 1054.35 331.616C1053.85 334.587 1052.26 336.423 1049.59 337.125C1048.82 338.331 1048.67 339.624 1049.14 341.005C1047.41 342.245 1045.59 343.432 1043.7 344.567C1042.91 347.54 1041.18 349.468 1038.52 350.35C1039.39 352.258 1038.87 352.994 1036.98 352.556C1036.24 355.38 1034.65 357.216 1032.22 358.065C1030 361.887 1027.53 365.103 1024.79 367.713C1023.22 368.348 1021.64 368.982 1020.06 369.617C1021.02 372.127 1020.27 373.416 1017.81 373.482C1016.97 376.701 1015.02 377.98 1011.96 377.318C1011.67 378.702 1011.38 380.087 1011.09 381.471C1009.3 382.854 1007.35 384.133 1005.24 385.307C1003.57 388.284 1001.11 390.298 997.839 391.35C997.076 392.555 996.927 393.848 997.392 395.229C994.06 397.297 990.531 399.21 986.806 400.968C987.528 402.649 987.153 403.293 985.681 402.901C984.735 404.946 983.61 406.878 982.307 408.698C979.615 410.064 976.922 411.428 974.23 412.794C974.317 413.534 974.403 414.274 974.49 415.015C972.913 415.65 971.336 416.283 969.759 416.918C970.481 418.599 970.106 419.243 968.634 418.851C967.885 420.139 967.134 421.427 966.384 422.716C963.693 424.081 961 425.446 958.308 426.811C954.806 431.045 951.076 435.083 947.117 438.925C943.775 441.039 940.246 442.953 936.531 444.665C936.902 446.828 935.786 447.559 933.185 446.857C933.907 448.537 933.531 449.181 932.06 448.789C932.782 450.469 932.406 451.113 930.935 450.722C930.185 452.01 929.435 453.298 928.685 454.587C921.267 459.379 913.879 464.22 906.518 469.109C905.755 470.314 905.606 471.607 906.071 472.988C901.484 475.894 896.84 478.537 892.139 480.92C892.511 483.083 891.395 483.814 888.794 483.112C889.165 485.275 888.049 486.006 885.448 485.304C886.31 487.212 885.795 487.947 883.904 487.51C882.118 489.416 880.392 491.344 878.727 493.293C876.126 492.591 875.01 493.322 875.381 495.485C874.179 495.475 872.978 495.466 871.776 495.456C872.24 496.837 872.092 498.13 871.328 499.335C868.512 500.89 865.68 502.346 862.834 503.705C862.084 504.993 861.333 506.282 860.584 507.57C853.767 511.934 846.893 516.04 839.96 519.885C840.332 522.049 839.216 522.78 836.614 522.077C836.986 524.241 835.87 524.972 833.269 524.269C833.356 525.01 833.441 525.75 833.528 526.49C831.179 527.868 828.766 529.05 826.288 530.038C826.659 532.201 825.544 532.932 822.942 532.23C823.314 534.393 822.198 535.124 819.596 534.422C819.968 536.585 818.852 537.316 816.251 536.614C816.337 537.354 816.423 538.094 816.51 538.835C811.604 541.285 806.821 544.019 802.16 547.04C801.397 548.246 801.248 549.539 801.713 550.92C788.341 559.209 775.053 567.515 761.85 575.839C761.937 576.58 762.023 577.32 762.11 578.06C759.587 580.036 756.53 580.843 752.938 580.483C753.309 582.646 752.193 583.377 749.592 582.675C748.748 585.895 746.797 587.173 743.736 586.511C744.108 588.674 742.992 589.405 740.39 588.703C740.477 589.443 740.563 590.183 740.65 590.924C721.491 603.146 702.53 615.567 683.769 628.188C682.481 627.438 681.097 627.15 679.616 627.322C677.951 629.272 676.225 631.199 674.438 633.105C664.925 637.814 656.142 643.568 648.089 650.367C646.147 650.444 644.205 650.521 642.263 650.598C642.634 652.761 641.518 653.492 638.917 652.79C639.288 654.953 638.172 655.684 635.571 654.982C629.817 659.084 624.005 663.29 618.135 667.6C615.443 667.258 613.448 668.166 612.15 670.326C610.948 670.316 609.746 670.307 608.544 670.297C603.958 673.535 599.679 676.736 595.709 679.901C594.663 679.562 593.601 679.461 592.521 679.598C587.347 682.927 582.189 686.307 577.047 689.736C575.453 690.148 573.832 690.412 572.186 690.529C569.918 693.103 567.087 694.559 563.692 694.899C561.278 696.344 559.23 698.084 557.548 700.119C556.715 699.556 555.792 699.363 554.779 699.542C550.093 701.979 545.771 704.81 541.814 708.036C538.479 709.09 535.143 710.08 531.805 711.007C530.314 712.382 528.824 713.757 527.334 715.131C523.002 715.496 519.291 717.131 516.2 720.035C513.949 719.863 511.728 720.123 509.537 720.813C508.219 722.21 506.868 723.493 505.485 724.664C503.235 724.626 501.014 724.886 498.822 725.442C495.918 729.345 491.745 730.883 486.304 730.057C486.675 732.22 485.559 732.951 482.958 732.249C482.862 732.71 482.765 733.172 482.669 733.633C480.037 732.071 478.738 732.523 478.775 734.989C476.912 734.56 475.614 735.011 474.881 736.344C472.249 734.782 470.95 735.234 470.988 737.7C464.735 738.446 458.577 739.69 452.513 741.434C452.138 741.93 451.902 742.484 451.806 743.093C449.87 741.813 448.39 741.985 447.365 743.612C443.523 743.958 439.688 743.881 435.856 743.381C434.798 743.496 433.871 743.905 433.073 744.607C432.525 743.77 431.977 742.934 431.429 742.097C430.592 742.645 429.756 743.193 428.919 743.741C425.771 739.953 423.305 736.188 421.521 732.449C425.161 723.88 429.108 715.914 433.362 708.552C435.253 708.989 435.768 708.254 434.905 706.346C435.366 706.442 435.829 706.538 436.29 706.634C437.032 703.811 438.619 701.975 441.049 701.125C440.584 699.744 440.733 698.451 441.496 697.246C443.387 696.111 445.199 694.924 446.933 693.684C446.548 691.216 447.437 689.836 449.602 689.545C450.723 687.766 451.71 685.925 452.558 684.021C454.51 682.743 456.462 681.464 458.414 680.185C458.042 678.022 459.158 677.291 461.76 677.993C461.57 677.022 461.532 676.051 461.644 675.08C463.409 673.642 464.947 672.036 466.259 670.263C466.856 670.419 467.457 670.424 468.062 670.278C469.803 666.188 472.279 662.971 475.49 660.63C476.086 660.785 476.688 660.791 477.292 660.645C478.204 658.406 479.469 656.382 481.085 654.573C483.55 653.66 485.963 652.479 488.325 651.026C487.603 649.345 487.979 648.701 489.45 649.093C490.907 644.679 493.608 642.113 497.555 641.392C497.184 639.229 498.3 638.498 500.901 639.2C501.19 637.816 501.478 636.431 501.767 635.047C502.228 635.143 502.69 635.239 503.151 635.335C505.017 633.316 506.882 631.298 508.747 629.278C511.606 627.955 514.436 626.499 517.242 624.909C517.252 623.707 517.261 622.505 517.271 621.303C521.132 618.12 525.174 615.471 529.4 613.357C529.028 611.194 530.144 610.463 532.745 611.165C532.454 609.955 532.463 608.754 532.774 607.56C538.918 603.302 545.191 599.192 551.595 595.23C552.358 594.024 552.507 592.732 552.042 591.35C558.161 587.368 564.296 583.349 570.445 579.294C570.074 577.131 571.19 576.4 573.791 577.102C573.069 575.422 573.445 574.778 574.916 575.17C577.391 572.902 579.631 570.239 581.637 567.181C588.978 562.324 596.367 557.483 603.803 552.659C604.505 550.666 605.491 548.825 606.76 547.135C613.333 542.845 620.207 538.739 627.383 534.82C627.012 532.656 628.128 531.925 630.729 532.628C630.642 531.887 630.557 531.147 630.47 530.407C637.036 524.57 644.286 519.82 652.218 516.159C651.496 514.478 651.872 513.834 653.343 514.226C655.209 512.207 657.074 510.189 658.939 508.169C668.965 501.672 679.185 495.374 689.6 489.278C691.466 487.258 693.331 485.24 695.196 483.221C702.391 478.941 709.545 474.654 716.656 470.357C719.598 467.667 722.44 465.009 725.18 462.382Z" fill="white"/>
<path opacity="0.01" fill-rule="evenodd" clip-rule="evenodd" d="M811.395 398.728C812.876 398.555 812.876 398.555 811.395 398.728V398.728Z" fill="white"/>
<path opacity="0.044" fill-rule="evenodd" clip-rule="evenodd" d="M854.857 547.186C857.429 546.074 859.66 544.612 861.549 542.802C863.309 542.447 865.068 542.091 866.828 541.735C871.179 538.147 875.736 534.762 880.5 531.583C882.775 530.705 885.092 529.984 887.451 529.42C889.372 527.871 891.463 526.501 893.725 525.31C893.638 524.569 893.552 523.829 893.465 523.089C904.341 516.31 914.797 509.46 924.833 502.539C928.554 501.974 931.664 500.334 934.164 497.621C935.361 497.147 936.563 497.157 937.77 497.65C940.385 494.343 943.731 492.151 947.807 491.074C949.673 489.055 951.538 487.037 953.403 485.017C958.354 482.596 963.32 480.14 968.301 477.648C969.457 476.064 971.173 475.339 973.45 475.471C980.147 470.839 986.796 466.085 993.395 461.208C996.731 460.218 1000.07 459.228 1003.4 458.238C1007.74 454.697 1012.3 451.313 1017.08 448.085C1020.29 446.517 1023.63 445.527 1027.09 445.115C1031.4 442.128 1035.54 439.018 1039.5 435.784C1041.49 436.953 1042.78 436.502 1043.4 434.429C1044.72 434.101 1046.06 434.019 1047.42 434.184C1050.67 431.269 1053.98 428.707 1057.33 426.497C1063.43 425.636 1068.39 423.179 1072.23 419.128C1078.07 418.33 1082.9 415.965 1086.71 412.033C1089.05 411.357 1091.41 411.006 1093.79 410.981C1095.15 409.805 1096.5 408.522 1097.84 407.13C1101.23 407.445 1103.96 406.45 1106.05 404.145C1108.66 402.977 1111.35 402.814 1114.09 403.655C1114.01 402.915 1113.92 402.174 1113.83 401.434C1117.3 399.517 1120.49 399.819 1123.39 402.343C1126.33 410.348 1128.81 418.688 1130.82 427.365C1131.95 431.211 1131.22 434.672 1128.66 437.748C1125.17 441.078 1121.9 444.611 1118.87 448.348C1116.95 448.775 1115.6 450.059 1114.81 452.199C1114.35 452.103 1113.89 452.006 1113.43 451.91C1112.68 454.215 1111.42 456.238 1109.63 457.982C1107.83 458.632 1106.11 459.358 1104.49 460.159C1101.53 465.835 1097.33 469.777 1091.91 471.985C1090.61 473.805 1089.48 475.737 1088.54 477.782C1084.63 480.904 1080.58 483.553 1076.41 485.728C1071.1 493.027 1064.81 498.338 1057.56 501.663C1058.42 503.572 1057.9 504.307 1056.01 503.87C1050.76 510.199 1044.85 514.867 1038.29 517.873C1037.45 520.16 1035.96 521.535 1033.82 521.997C1030.87 525.343 1027.8 528.554 1024.59 531.631C1019.66 534.458 1014.74 537.283 1009.82 540.11C1008.36 544.524 1005.66 547.09 1001.71 547.811C1000.96 549.1 1000.21 550.388 999.464 551.676C994.587 554.529 989.664 557.356 984.696 560.156C983.667 561.627 982.638 563.097 981.61 564.569C975.675 568.787 969.541 572.805 963.207 576.625C962.923 577.559 962.499 578.434 961.938 579.249C957.652 582.288 953.604 585.537 949.794 588.998C944.236 592.528 938.477 595.903 932.517 599.122C932.604 599.862 932.689 600.602 932.776 601.342C927.566 603.866 922.645 606.693 918.008 609.822C916.997 610.966 916.247 612.255 915.758 613.687C912.217 616.067 908.41 618.163 904.336 619.974C904.423 620.715 904.509 621.455 904.596 622.195C899.844 624.649 895.201 627.293 890.664 630.127C889.915 631.415 889.164 632.703 888.414 633.992C883.4 636.764 878.477 639.591 873.646 642.471C869.551 645.952 865.454 649.432 861.358 652.912C854.221 656.832 847.347 660.937 840.735 665.228C834.409 670.17 828.082 675.111 821.755 680.053C806.767 688.995 791.71 698.859 776.585 709.645C775.264 709.973 773.922 710.054 772.562 709.89C765.788 715.701 758.398 720.542 750.395 724.412C747.415 727.162 744.434 729.911 741.453 732.661C736.541 734.286 732.358 737.026 728.906 740.881C723.833 742.212 719.608 744.581 716.229 747.99C714.889 748.222 713.548 748.304 712.206 748.235C692.537 761.624 673.159 774.319 654.07 786.321C650.659 787.449 647.183 788.531 643.643 789.566C638.017 793.22 632.483 797.243 627.043 801.636C623.828 803.053 620.492 804.043 617.035 804.607C613.463 807.468 609.881 810.213 606.29 812.841C603.21 814.356 600.013 815.255 596.7 815.538C593.276 818.424 589.834 821.077 586.373 823.498C583.912 824.148 581.412 824.591 578.874 824.825C576.635 827.046 574.169 829.06 571.476 830.867C569.3 831.774 567.079 832.033 564.813 831.646C562.458 833.738 559.992 835.752 557.414 837.688C555.074 838.364 552.713 838.715 550.333 838.741C548.974 839.917 547.623 841.2 546.28 842.591C543.94 843.267 541.58 843.619 539.199 843.644C536.238 847.933 532.161 849.009 526.97 846.874C521.671 842.676 516.2 838.888 510.558 835.509C510.654 835.048 510.75 834.586 510.846 834.125C504.98 832.993 502.326 829.551 502.886 823.799C504.65 822.36 506.189 820.755 507.501 818.982C507.962 819.078 508.425 819.174 508.886 819.27C508.713 817.79 509.001 816.405 509.751 815.117C511.859 813.943 513.811 812.664 515.606 811.281C517.067 806.919 519.769 804.352 523.712 803.58C522.99 801.9 523.365 801.256 524.837 801.647C524.115 799.967 524.49 799.323 525.962 799.715C526.711 798.427 527.462 797.138 528.211 795.85C530.045 795.454 531.622 794.82 532.942 793.947C536.148 788.193 540.479 784.16 545.936 781.847C549.106 777.491 552.698 773.544 556.71 770.007C558.287 769.372 559.863 768.739 561.44 768.104C563.431 764.582 566.132 762.014 569.545 760.403C571.411 758.383 573.276 756.365 575.141 754.346C577.639 754.018 579.269 752.551 580.03 749.947C581.818 749.64 583.03 748.448 583.665 746.371C588.866 742.663 594.025 739.283 599.139 736.233C599.982 733.945 601.472 732.571 603.61 732.108C604.344 730.118 605.556 728.925 607.245 728.532C609.389 726.33 611.533 724.129 613.677 721.927C617.338 720.156 620.867 718.243 624.263 716.187C628.173 712.631 631.904 708.592 635.454 704.073C642.229 699.701 649.103 695.596 656.078 691.758C657.481 689.643 658.886 687.527 660.289 685.413C666.211 680.834 672.344 676.816 678.692 673.357C680.557 671.337 682.422 669.319 684.288 667.3C691.188 662.957 698.203 658.761 705.329 654.71C707.741 652.061 710.121 649.307 712.468 646.447C717.014 643.533 721.658 640.889 726.4 638.515C728.165 635.091 730.771 632.986 734.217 632.199C737.197 629.449 740.178 626.7 743.159 623.95C751.403 618.755 759.393 613.92 767.128 609.442C770.108 606.692 773.089 603.943 776.07 601.193C785.074 595.361 794.179 589.794 803.385 584.494C807.481 581.013 811.577 577.533 815.673 574.053C823.865 569.373 831.855 564.537 839.642 559.545C844.806 555.385 849.878 551.266 854.857 547.186ZM894.951 528.093C896.887 528.293 898.141 527.471 898.715 525.627C900.799 525.609 902.881 525.441 904.959 525.123C918.206 515.059 932.007 506.017 946.365 497.997C946.278 497.256 946.192 496.516 946.105 495.776C947.434 497.046 949.001 497.613 950.807 497.478C950.72 496.737 950.634 495.997 950.547 495.257C960.819 490.018 970.439 483.716 979.406 476.351C983.017 476.07 985.849 474.613 987.9 471.981C989.102 471.991 990.304 472 991.506 472.01C997.135 467.415 1002.95 463.208 1008.94 459.392C1011.63 459.734 1013.63 458.826 1014.93 456.666C1017.52 455.763 1020.12 454.859 1022.72 453.955C1025.07 451.863 1027.54 449.849 1030.11 447.913C1031.59 447.74 1033.08 447.566 1034.56 447.394C1039.89 443.912 1045.19 440.442 1050.45 436.982C1053.14 437.324 1055.14 436.415 1056.43 434.256C1058.89 433.508 1061.34 432.696 1063.8 431.819C1066.3 428.696 1069.5 426.595 1073.42 425.517C1074.9 425.345 1076.38 425.171 1077.86 424.998C1079.3 423.455 1080.79 422.08 1082.34 420.874C1085.79 420.352 1089.13 419.362 1092.34 417.903C1092.44 417.294 1092.68 416.74 1093.05 416.245C1097.92 416.464 1101.64 414.829 1104.18 411.341C1105.52 411.948 1106.9 412.237 1108.34 412.207C1110.95 408.613 1114.75 407.118 1119.75 407.722C1121.84 415.853 1123.62 424.05 1125.1 432.311C1123.97 434.09 1122.99 435.931 1122.14 437.835C1117.9 439.744 1114.82 442.955 1112.91 447.468C1111.33 448.103 1109.76 448.737 1108.18 449.372C1108.55 451.535 1107.43 452.266 1104.83 451.564C1104.54 452.948 1104.26 454.333 1103.97 455.717C1101.77 458.577 1098.84 460.495 1095.18 461.471C1094.52 463.722 1093.17 465.005 1091.13 465.322C1091.22 466.062 1091.3 466.802 1091.39 467.543C1087.04 471.692 1082.02 474.98 1076.33 477.407C1076.63 478.617 1076.62 479.818 1076.31 481.012C1074.73 481.647 1073.15 482.281 1071.58 482.916C1071.95 485.079 1070.83 485.81 1068.23 485.108C1068.32 485.848 1068.4 486.588 1068.49 487.329C1066.13 488.781 1063.71 489.963 1061.25 490.876C1061.34 491.616 1061.42 492.357 1061.51 493.097C1059.17 496.222 1056.1 498.23 1052.31 499.125C1051.56 500.413 1050.81 501.702 1050.06 502.99C1046.21 505.255 1042.26 507.442 1038.22 509.551C1038.21 510.753 1038.2 511.955 1038.19 513.157C1035.61 514.296 1033.06 515.571 1030.53 516.978C1029.5 518.45 1028.47 519.92 1027.44 521.391C1026.12 522.265 1024.55 522.899 1022.71 523.295C1021.87 526.515 1019.92 527.793 1016.86 527.131C1017.23 529.294 1016.11 530.025 1013.51 529.323C1013.98 530.704 1013.83 531.997 1013.06 533.202C1011.54 534.119 1009.82 534.844 1007.92 535.38C1007.17 536.668 1006.42 537.956 1005.67 539.245C996.647 544.719 988.143 550.291 980.153 555.959C980.004 557.252 979.855 558.545 979.706 559.838C974.148 563.368 968.388 566.743 962.429 569.962C961.679 571.25 960.928 572.538 960.179 573.827C949.859 579.14 940.239 585.442 931.32 592.733C930.557 593.938 930.408 595.231 930.873 596.612C922.639 601.57 914.65 606.406 906.904 611.12C905.038 613.139 903.173 615.157 901.308 617.177C898.706 616.474 897.591 617.205 897.962 619.369C878.745 632.392 859.785 644.813 841.081 656.633C841.452 658.796 840.337 659.527 837.735 658.824C838.107 660.988 836.991 661.719 834.389 661.016C834.476 661.757 834.562 662.497 834.649 663.237C827.674 667.075 820.8 671.18 814.025 675.553C808.733 681.651 802.32 685.853 794.786 688.157C791.806 690.907 788.825 693.656 785.845 696.406C775.411 702.591 765.191 708.888 755.183 715.297C755.27 716.038 755.356 716.778 755.443 717.518C753.876 716.951 752.308 716.383 750.742 715.816C751.113 717.98 749.997 718.711 747.396 718.008C747.767 720.172 746.651 720.903 744.05 720.2C744.137 720.941 744.222 721.681 744.309 722.421C729.937 730.261 716.275 739.212 703.322 749.273C701.728 749.685 700.108 749.949 698.462 750.066C688.163 756.832 678.03 763.87 668.06 771.179C665.981 771.497 663.899 771.666 661.815 771.683C653.802 777.236 645.898 782.812 638.105 788.412C635.869 788.456 633.648 788.715 631.443 789.19C625.745 793.291 620.073 797.407 614.424 801.535C612.232 802.091 610.011 802.351 607.762 802.314C608.133 804.477 607.017 805.208 604.416 804.506C601.95 807.116 598.882 809.125 595.214 810.534C595.301 811.274 595.387 812.014 595.474 812.754C594.229 812.374 592.984 811.995 591.739 811.615C590.897 813.179 589.46 813.722 587.427 813.245C587.798 815.408 586.682 816.139 584.081 815.437C584.452 817.6 583.336 818.331 580.735 817.629C579.302 819.172 577.812 820.546 576.264 821.753C574.071 822.31 571.85 822.569 569.601 822.532C569.972 824.695 568.856 825.426 566.255 824.724C564.823 826.267 563.332 827.641 561.784 828.848C557.604 829.162 554.031 830.705 551.069 833.477C549.008 834.189 546.926 834.357 544.824 833.982C544.911 834.722 544.997 835.462 545.084 836.203C541.8 838.264 538.003 839.158 533.69 838.885C532.77 840.889 531.144 841.754 528.816 841.48C528.945 840.725 528.858 839.985 528.556 839.259C526.627 839.096 524.83 838.48 523.163 837.413C518.749 833.598 514.383 830.281 510.068 827.462C509.885 826.141 509.804 824.799 509.823 823.438C511.566 822.003 513.518 820.725 515.678 819.602C516.38 817.61 517.366 815.768 518.635 814.079C520.212 813.444 521.788 812.81 523.365 812.175C523.654 810.791 523.942 809.406 524.231 808.022C524.692 808.118 525.154 808.214 525.615 808.31C526.404 806.885 527.294 805.506 528.283 804.171C530.409 803.219 532.222 802.031 533.72 800.609C533.633 799.869 533.548 799.129 533.461 798.388C537.426 795.687 541.468 793.038 545.59 790.442C546.353 789.237 546.502 787.944 546.037 786.563C550.248 784.21 554.43 781.47 558.584 778.343C559.244 776.322 560.23 774.481 561.541 772.82C565.723 770.08 569.906 767.34 574.088 764.6C575.21 762.821 576.196 760.979 577.045 759.076C583.833 755.063 590.107 750.953 595.865 746.746C596.629 745.541 596.777 744.248 596.313 742.867C604.682 736.822 613.185 731.251 621.825 726.153C621.973 725.008 621.844 723.898 621.436 722.821C625.252 720.68 629.059 718.584 632.858 716.534C633.647 715.108 634.537 713.729 635.526 712.395C638.105 711.256 640.658 709.981 643.184 708.573C642.813 706.41 643.929 705.679 646.53 706.381C646.159 704.218 647.275 703.487 649.876 704.189C649.789 703.449 649.704 702.709 649.617 701.968C651.987 699.704 654.775 697.877 657.981 696.488C657.895 695.748 657.809 695.008 657.722 694.267C670.307 685.763 682.855 677.543 695.364 669.607C695.512 668.314 695.662 667.021 695.811 665.728C706.606 657.823 718.178 650.242 730.525 642.986C731.274 641.698 732.025 640.409 732.774 639.121C742.158 633.372 751.543 627.623 760.926 621.874C761.77 618.654 763.721 617.375 766.782 618.038C766.41 615.874 767.526 615.143 770.128 615.846C770.041 615.105 769.955 614.365 769.868 613.625C772.686 612.295 775.517 610.838 778.363 609.255C778.893 605.951 780.705 604.764 783.8 605.693C783.428 603.53 784.544 602.799 787.146 603.501C787.059 602.761 786.973 602.021 786.886 601.28C801.289 592.243 815.692 583.206 830.094 574.169C829.723 572.005 830.839 571.274 833.44 571.977C833.069 569.813 834.185 569.082 836.786 569.785C836.415 567.621 837.531 566.89 840.132 567.593C841.353 565.199 843.306 563.92 845.988 563.757C845.616 561.593 846.732 560.862 849.333 561.565C849.247 560.824 849.161 560.084 849.074 559.344C864.975 549.653 880.493 539.886 895.628 530.04C895.691 529.289 895.465 528.64 894.951 528.093Z" fill="white"/>
<path opacity="0.043" fill-rule="evenodd" clip-rule="evenodd" d="M634.049 896.272C629.349 894.777 628.907 892.278 632.723 888.773C636.943 887.88 639.924 885.13 641.664 880.524C644.421 879.518 646.608 877.687 648.226 875.029C652.025 872.979 655.832 870.883 659.649 868.742C660.678 867.27 661.706 865.8 662.735 864.329C665.203 862.816 667.756 861.542 670.393 860.507C672.311 856.966 675.056 854.77 678.628 853.917C682.463 849.604 686.655 845.662 691.204 842.091C698.136 838.246 705.011 834.14 711.828 829.776C713.231 827.661 714.636 825.545 716.039 823.43C719.805 821.504 723.473 819.499 727.043 817.417C727.704 815.166 729.054 813.883 731.096 813.566C735.191 810.086 739.288 806.606 743.383 803.125C751.51 798.432 759.5 793.595 767.353 788.618C769.218 786.599 771.083 784.58 772.949 782.561C777.087 780.606 781.034 778.419 784.789 776C785.779 774.665 786.668 773.286 787.457 771.861C787.918 771.957 788.381 772.053 788.842 772.149C792.937 768.669 797.034 765.189 801.129 761.708C807.159 758.196 813.196 754.638 819.243 751.037C819.642 748.808 820.853 747.616 822.878 747.46C828.926 742.701 834.973 737.943 841.021 733.183C848.174 728.895 855.328 724.608 862.481 720.32C865.461 717.57 868.442 714.821 871.423 712.071C879.641 707.15 887.631 702.315 895.392 697.563C900.603 693.352 905.814 689.142 911.026 684.93C930.304 673.56 949.125 661.23 967.488 647.94C969.231 646.782 971.129 646.334 973.185 646.599C975.565 643.483 978.632 641.474 982.386 640.571C982.015 638.408 983.13 637.677 985.732 638.379C985.645 637.639 985.559 636.899 985.472 636.158C1005.1 624.117 1024.48 611.421 1043.61 598.072C1044.97 598.237 1046.31 598.155 1047.63 597.827C1069.67 581.895 1092.25 567.099 1115.39 553.439C1119.22 553.236 1122.19 551.688 1124.3 548.796C1125.64 548.865 1126.98 548.783 1128.32 548.551C1130.9 546.614 1133.37 544.601 1135.72 542.508C1136.96 542.29 1138.12 542.531 1139.18 543.229C1139.2 560.467 1136.89 577.321 1132.26 593.792C1126.01 598.086 1119.87 602.105 1113.86 605.848C1111.99 607.867 1110.13 609.885 1108.26 611.905C1105.41 613.263 1102.58 614.72 1099.77 616.274C1097.85 619.815 1095.1 622.012 1091.53 622.865C1086.87 627.753 1081.84 632.243 1076.44 636.334C1071.56 639.168 1066.64 641.995 1061.68 644.814C1061.76 645.554 1061.85 646.294 1061.94 647.035C1052.34 652.585 1042.86 658.796 1033.5 665.667C1029.66 669.979 1025.47 673.921 1020.92 677.492C1003.63 688.828 986.619 699.971 969.894 710.92C969.981 711.661 970.067 712.401 970.154 713.141C960.084 719.859 949.864 726.155 939.493 732.033C937.627 734.052 935.762 736.07 933.897 738.09C927.897 741.477 921.999 744.943 916.201 748.487C914.772 751.86 912.306 753.874 908.802 754.53C908.889 755.27 908.975 756.01 909.062 756.75C905.524 758.416 901.631 759.772 897.38 760.817C896.996 762.663 895.88 763.394 894.034 763.009C894.121 763.749 894.207 764.49 894.294 765.23C884.268 771.728 874.048 778.025 863.633 784.121C861.767 786.141 859.902 788.159 858.037 790.178C846.668 797.019 835.333 804.046 824.03 811.262C821.049 814.012 818.068 816.761 815.088 819.511C804.791 824.806 795.311 831.017 786.648 838.143C784.913 838.712 783.153 839.067 781.369 839.21C777.452 842.601 773.495 845.991 769.5 849.377C768.139 849.213 766.798 849.294 765.476 849.622C738.998 868.049 712.371 885.493 685.592 901.956C681.629 902.986 677.826 904.481 674.185 906.441C660.479 904.018 647.101 900.629 634.049 896.272ZM990.303 638.971C993.98 637.269 998.013 635.822 1002.4 634.63C1002.03 632.467 1003.15 631.736 1005.75 632.438C1005.38 630.275 1006.49 629.544 1009.1 630.246C1009.01 629.506 1008.92 628.766 1008.84 628.025C1026.08 618.011 1042.95 606.96 1059.44 594.871C1060.69 595.251 1061.93 595.631 1063.18 596.011C1062.81 593.847 1063.92 593.116 1066.52 593.819C1066.15 591.655 1067.27 590.924 1069.87 591.627C1072.28 588.688 1075.35 586.679 1079.07 585.599C1078.7 583.435 1079.82 582.704 1082.42 583.407C1082.05 581.243 1083.16 580.512 1085.76 581.215C1089.22 577.716 1093.41 574.976 1098.31 572.995C1098.22 572.254 1098.14 571.514 1098.05 570.774C1100.53 568.775 1103.59 567.968 1107.22 568.351C1106.85 566.188 1107.97 565.457 1110.57 566.159C1110.2 563.996 1111.31 563.265 1113.91 563.967C1119.67 559.865 1125.48 555.659 1131.35 551.349C1132.2 551.163 1133.03 551.216 1133.85 551.507C1133.87 553.68 1133.9 555.853 1133.93 558.026C1133.47 557.93 1133.01 557.834 1132.55 557.738C1132.73 568.025 1131.26 578.553 1128.13 589.321C1123.52 592.156 1118.88 594.801 1114.2 597.253C1114.57 599.416 1113.46 600.147 1110.86 599.445C1111.23 601.608 1110.11 602.339 1107.51 601.636C1106.45 602.958 1105.92 604.895 1105.94 607.448C1100.14 610.992 1094.24 614.458 1088.24 617.846C1087.49 619.134 1086.74 620.422 1085.99 621.711C1081.03 624.529 1076.11 627.356 1071.22 630.19C1071.6 632.354 1070.48 633.085 1067.88 632.382C1066.07 634.09 1064.12 635.369 1062.02 636.218C1062.89 638.127 1062.37 638.862 1060.48 638.425C1058.81 641.316 1056.7 643.888 1054.18 646.14C1038.37 656.833 1022.48 667.245 1006.5 677.376C1006.58 678.117 1006.67 678.857 1006.76 679.597C1001.21 683.082 995.448 686.457 989.48 689.721C989.851 691.884 988.735 692.615 986.134 691.913C986.505 694.076 985.389 694.807 982.788 694.105C982.875 694.845 982.96 695.585 983.047 696.326C978.656 700.466 973.637 703.754 967.991 706.19C968.078 706.93 968.163 707.67 968.25 708.411C954.921 716.708 941.633 725.015 928.388 733.33C928.475 734.071 928.56 734.811 928.647 735.551C906.339 750.904 884.032 765.517 861.729 779.391C859.864 781.411 857.999 783.429 856.133 785.448C849.773 789.393 843.5 793.503 837.312 797.778C835.234 798.096 833.152 798.265 831.068 798.283C831.439 800.446 830.323 801.177 827.722 800.475C828.093 802.638 826.977 803.369 824.376 802.667C824.463 803.407 824.549 804.147 824.636 804.888C815.514 810.205 806.409 815.771 797.32 821.587C793.503 824.885 789.686 828.182 785.869 831.48C784.388 831.653 782.908 831.826 781.427 831.999C776.871 834.595 772.774 838.076 769.139 842.44C762.816 846.216 756.681 850.235 750.737 854.496C749.448 853.746 748.064 853.458 746.583 853.631C746.477 855.294 745.641 855.842 744.074 855.275C744.445 857.438 743.329 858.169 740.728 857.467C741.099 859.63 739.983 860.361 737.382 859.659C737.753 861.822 736.638 862.553 734.036 861.851C734.407 864.014 733.292 864.745 730.69 864.043C730.777 864.783 730.863 865.523 730.95 866.263C720.819 871.36 711.339 877.57 702.51 884.895C700.426 884.913 698.344 885.082 696.265 885.4C693.537 886.612 691.533 888.723 690.251 891.731C689.049 891.721 687.847 891.712 686.645 891.702C682.855 894.635 679.273 897.379 675.901 899.937C673.465 898.459 671.061 898.439 668.69 899.879C665.858 898.433 662.864 897.208 659.706 896.201C659.609 896.662 659.513 897.124 659.417 897.585C652.284 894.93 645.318 893.118 638.52 892.148C639.66 890.528 640.829 888.965 642.025 887.461C649.973 883.557 657.362 878.716 664.191 872.939C664.955 871.733 665.103 870.44 664.639 869.059C670.197 865.529 675.956 862.154 681.916 858.936C682.666 857.647 683.417 856.359 684.166 855.071C687.973 852.975 691.781 850.879 695.588 848.783C695.217 846.62 696.333 845.889 698.934 846.591C698.563 844.428 699.679 843.697 702.28 844.399C701.312 842.275 701.965 841.448 704.242 841.919C704.75 840.961 705.082 839.947 705.237 838.876C712.98 832.784 721.484 827.214 730.749 822.162C731.499 820.873 732.25 819.585 732.999 818.297C739.028 814.785 745.066 811.227 751.113 807.625C750.742 805.462 751.858 804.731 754.459 805.433C754.088 803.27 755.204 802.539 757.805 803.241C758.649 800.022 760.6 798.743 763.661 799.405C763.289 797.242 764.405 796.511 767.006 797.213C766.579 794.853 767.242 792.825 768.997 791.127C786.837 779.77 804.683 768.079 822.531 756.055C822.16 753.892 823.276 753.161 825.877 753.863C825.79 753.123 825.705 752.383 825.618 751.642C832.563 747.726 839.437 743.621 846.241 739.327C851.173 735.299 856.107 731.27 861.038 727.242C873.703 719.595 886.154 711.838 898.392 703.967C898.02 701.803 899.136 701.072 901.737 701.775C901.366 699.611 902.482 698.88 905.083 699.583C904.996 698.842 904.911 698.102 904.824 697.362C911.929 693.748 918.803 689.643 925.447 685.046C927.313 683.027 929.178 681.009 931.043 678.989C934.11 677.223 937.542 675.77 941.34 674.634C944.321 671.884 947.302 669.135 950.282 666.385C962.61 658.447 975.061 650.69 987.635 643.11C988.664 641.72 989.553 640.34 990.303 638.971Z" fill="white"/>
</g>
<defs>
<clipPath id="clip0_2815_2041">
<rect width="1080" height="1080" fill="white" transform="translate(0 361.84) rotate(-33.2299)"/>
</clipPath>
</defs>
</svg>
